#!OML:ASF I:\Random Stuff\random\construction\7_22_03\Session 2\subj1.ASF
:FULLY-SPECIFIED
:DEGREES
801
root 5.48407 17.6506 -8.38107 2.97046 -59.5619 1.37382
lowerback 3.09093 -0.662627 1.09883
upperback -1.8149 -0.762059 2.85899
thorax -3.57902 -0.379704 2.37929
lowerneck -23.7693 -4.53874 -2.92542
upperneck 25.9864 -7.47063 6.00727
head 13.0238 -2.81256 1.44695
rclavicle 3.62782e-015 8.74653e-015
rhumerus -31.0695 43.9814 -93.5687
rradius 99.6487
rwrist 2.33542
rhand -22.5176 27.8684
rfingers 7.12502
rthumb 3.90892 -2.07545
lclavicle 3.62782e-015 8.74653e-015
lhumerus -25.5575 -29.5413 92.9432
lradius 119.404
lwrist -5.06346
lhand -9.31411 59.336
lfingers 7.12502
lthumb 16.6441 448.642
rfemur -5.33607 6.33189 22.0069
rtibia 13.9885
rfoot -9.33592 -22.5519
rtoes -5.20746
lfemur -9.24032 -11.2057 -13.4157
ltibia 16.5611
lfoot -10.056 24.3739
ltoes -26.4489
802
root 5.48148 17.6487 -8.39492 3.03735 -59.5815 1.24964
lowerback 3.06969 -0.649932 1.20845
upperback -1.80415 -0.740209 2.9148
thorax -3.55741 -0.371295 2.37365
lowerneck -23.8707 -4.53747 -2.94087
upperneck 25.8821 -7.43679 5.97636
head 12.9986 -2.80177 1.44196
rclavicle -3.94588e-014 -8.74653e-015
rhumerus -30.9898 43.9343 -93.4437
rradius 99.6266
rwrist 2.06716
rhand -22.0104 27.934
rfingers 7.12502
rthumb 4.39873 -2.00029
lclavicle -3.94588e-014 -8.74653e-015
lhumerus -25.7273 -30.5115 93.3298
lradius 118.642
lwrist -7.79182
lhand -12.9197 59.7026
lfingers 7.12502
lthumb 13.1706 449.267
rfemur -5.2555 6.33559 22.126
rtibia 13.8826
rfoot -9.24706 -22.5347
rtoes -5.35122
lfemur -9.24666 -11.2552 -13.2975
ltibia 16.6416
lfoot -10.0009 24.4272
ltoes -26.8496
803
root 5.47828 17.6477 -8.40879 3.07201 -59.6459 1.14713
lowerback 3.08338 -0.635366 1.30072
upperback -1.80478 -0.715049 2.98288
thorax -3.56707 -0.360633 2.39108
lowerneck -23.9841 -4.50687 -2.94505
upperneck 25.7741 -7.34587 5.89016
head 12.9677 -2.77203 1.42426
rclavicle 4.33848e-014 1.11319e-014
rhumerus -31.0221 43.927 -93.4123
rradius 99.6397
rwrist 1.70833
rhand -21.6529 27.9444
rfingers 7.12502
rthumb 4.74398 -1.98252
lclavicle 4.33848e-014 1.11319e-014
lhumerus -25.954 -31.3901 93.8148
lradius 117.789
lwrist -11.1095
lhand -16.883 59.9962
lfingers 7.12502
lthumb 9.34822 449.769
rfemur -5.16447 6.36259 22.2327
rtibia 13.7664
rfoot -9.17247 -22.4874
rtoes -5.83957
lfemur -9.23547 -11.2166 -13.1969
ltibia 16.7293
lfoot -9.91476 24.456
ltoes -27.2152
804
root 5.47467 17.6472 -8.42216 3.103 -59.7354 1.09815
lowerback 3.04631 -0.647456 1.37667
upperback -1.82804 -0.727448 3.04351
thorax -3.57014 -0.368383 2.41175
lowerneck -24.1465 -4.4077 -2.84159
upperneck 25.9148 -7.1858 5.68532
head 13.0339 -2.71301 1.35611
rclavicle 5.36222e-014 1.11319e-014
rhumerus -31.2096 44.036 -93.5642
rradius 99.7114
rwrist 1.58428
rhand -21.8659 27.7312
rfingers 7.12502
rthumb 4.53829 -2.20017
lclavicle 5.36222e-014 1.11319e-014
lhumerus -26.2307 -32.0938 94.3213
lradius 116.962
lwrist -14.7219
lhand -20.2503 60.481
lfingers 7.12502
lthumb 6.09817 629.627
rfemur -5.12899 6.36867 22.2978
rtibia 13.6496
rfoot -9.18049 -22.3856
rtoes -6.12139
lfemur -9.2619 -11.1409 -13.1219
ltibia 16.8176
lfoot -9.94936 24.4846
ltoes -26.9045
805
root 5.46918 17.6467 -8.43674 3.12516 -59.8279 1.09431
lowerback 2.95661 -0.672296 1.42644
upperback -1.84584 -0.760233 3.09665
thorax -3.53689 -0.38578 2.43957
lowerneck -24.2059 -4.37571 -2.78893
upperneck 25.9867 -7.15557 5.64995
head 13.0698 -2.69696 1.33873
rclavicle -9.22858e-014 -1.59028e-015
rhumerus -31.3277 44.194 -93.6879
rradius 99.7906
rwrist 1.64739
rhand -22.3052 27.5506
rfingers 7.12502
rthumb 4.11401 -2.38942
lclavicle -9.22858e-014 -1.59028e-015
lhumerus -26.4947 -32.6275 94.7934
lradius 116.232
lwrist -18.5467
lhand -22.1022 61.1368
lfingers 7.12502
lthumb 4.31012 628.927
rfemur -5.12827 6.50111 22.3468
rtibia 13.5667
rfoot -9.22349 -22.394
rtoes -5.79687
lfemur -9.30527 -10.9985 -13.0617
ltibia 16.8884
lfoot -9.81726 24.4402
ltoes -27.1993
